<svg id="Lag_1" data-name="Lag 1" xmlns="http://www.w3.org/2000/svg" viewBox="0 0 500 225"><defs><style>.cls-1{fill:#fff;}.cls-2{fill:#ffbf00;}</style></defs><rect class="cls-1" y="83.79" width="500" height="29"/><path class="cls-2" d="M169.12,277.2h0l-83-51.9,83.05-51.9h0a12.49,12.49,0,1,0-13.24-21.18h0l-100,62.5h0a12.42,12.42,0,0,0-3.35,3.07l-.11.14c-.27.38-.53.77-.76,1.17a.41.41,0,0,0,0,.09,13.2,13.2,0,0,0-.67,1.36l0,.12c-.16.41-.3.82-.42,1.24,0,.13-.07.27-.1.4-.09.35-.16.71-.22,1.07l-.06.43a12.32,12.32,0,0,0-.1,1.5,12.59,12.59,0,0,0,.1,1.5l.06.42c.06.36.13.72.22,1.07,0,.13.06.27.1.41a12.71,12.71,0,0,0,.42,1.23s0,.08,0,.12a12.26,12.26,0,0,0,.67,1.36.41.41,0,0,0,0,.09,13,13,0,0,0,.76,1.17l.11.14a12.62,12.62,0,0,0,3.35,3.08h0l100,62.5h0a12.49,12.49,0,1,0,13.24-21.18Z" transform="translate(0 -150.29)"/><path class="cls-2" d="M330.88,277.2h0l83.05-51.9-83.05-51.9h0a12.49,12.49,0,1,1,13.24-21.18h0l100,62.5h0a12.42,12.42,0,0,1,3.35,3.07l.11.14c.27.38.53.77.76,1.17a.41.41,0,0,1,.05.09,13.2,13.2,0,0,1,.67,1.36s0,.08,0,.12c.16.41.3.82.42,1.24,0,.13.07.27.1.4.09.35.16.71.22,1.07l.06.43a12.32,12.32,0,0,1,.1,1.5,12.59,12.59,0,0,1-.1,1.5l-.06.42c-.06.36-.13.72-.22,1.07,0,.13-.06.27-.1.41a12.71,12.71,0,0,1-.42,1.23s0,.08,0,.12a12.26,12.26,0,0,1-.67,1.36.41.41,0,0,1-.05.09,13,13,0,0,1-.76,1.17l-.11.14a12.62,12.62,0,0,1-3.35,3.08h0l-100,62.5h0a12.49,12.49,0,1,1-13.24-21.18Z" transform="translate(0 -150.29)"/><path class="cls-2" d="M250,175.29a45.72,45.72,0,0,0-25.82,8.07A12.49,12.49,0,0,0,200,187.79v175a12.5,12.5,0,0,0,25,0V280.24a45.6,45.6,0,0,0,25,7.55c27.61,0,50-25.19,50-56.25S277.61,175.29,250,175.29Zm-5.75,87.5A31.11,31.11,0,0,1,225,256.14V206.93a31.25,31.25,0,1,1,19.25,55.86Z" transform="translate(0 -150.29)"/></svg>