<svg id="Lag_1" data-name="Lag 1" xmlns="http://www.w3.org/2000/svg" viewBox="0 0 500 200"><defs><style>.cls-1{fill:#fff;}.cls-2{fill:#ffbf00;}</style></defs><rect class="cls-1" y="110.5" width="500" height="29"/><path class="cls-2" d="M181.62,277.2h0l-83-51.9,83-51.9h0a12.49,12.49,0,1,0-13.24-21.18h0l-100,62.5h0A12.42,12.42,0,0,0,65,217.77l-.11.14c-.27.38-.53.77-.76,1.17a.41.41,0,0,0,0,.09,13.2,13.2,0,0,0-.67,1.36l0,.12c-.16.41-.3.82-.42,1.24,0,.13-.07.27-.1.4-.09.35-.16.71-.22,1.07l-.06.43a12.32,12.32,0,0,0-.1,1.5,12.59,12.59,0,0,0,.1,1.5l.06.42c.06.36.13.72.22,1.07,0,.13.06.27.1.41a12.71,12.71,0,0,0,.42,1.23s0,.08,0,.12a12.26,12.26,0,0,0,.67,1.36.41.41,0,0,0,0,.09,13,13,0,0,0,.76,1.17l.11.14a12.62,12.62,0,0,0,3.35,3.08h0l100,62.5h0a12.49,12.49,0,1,0,13.24-21.18Z" transform="translate(-0.43 -125.29)"/><path class="cls-2" d="M318.38,277.2h0l83-51.9-83-51.9h0a12.49,12.49,0,1,1,13.24-21.18h0l100,62.5h0a12.42,12.42,0,0,1,3.35,3.07l.11.14c.27.38.53.77.76,1.17a.41.41,0,0,1,.05.09,13.2,13.2,0,0,1,.67,1.36s0,.08,0,.12c.16.41.3.82.42,1.24,0,.13.07.27.1.4.09.35.16.71.22,1.07l.06.43a12.32,12.32,0,0,1,.1,1.5,12.59,12.59,0,0,1-.1,1.5l-.06.42c-.06.36-.13.72-.22,1.07,0,.13-.06.27-.1.41a12.71,12.71,0,0,1-.42,1.23s0,.08,0,.12a12.26,12.26,0,0,1-.67,1.36.41.41,0,0,1-.05.09,13,13,0,0,1-.76,1.17l-.11.14a12.62,12.62,0,0,1-3.35,3.08h0l-100,62.5h0a12.49,12.49,0,1,1-13.24-21.18Z" transform="translate(-0.43 -125.29)"/><path class="cls-2" d="M287,141.22h0a12.49,12.49,0,1,0-24-6.87h0L213.06,309.07h0l-.08.28h0a12.49,12.49,0,1,0,24,6.87h0L286.94,141.5h0Z" transform="translate(-0.43 -125.29)"/></svg>