<svg id="Lag_1" data-name="Lag 1" xmlns="http://www.w3.org/2000/svg" viewBox="0 0 500 250"><defs><style>.cls-1{fill:#ffbf00;}</style></defs><path class="cls-1" d="M119.12,278.91h0l-83-51.9,83-51.9h0a12.49,12.49,0,1,0-13.24-21.18h0l-100,62.5h0a12.42,12.42,0,0,0-3.35,3.07l-.11.15a11.74,11.74,0,0,0-.76,1.17.22.22,0,0,0,0,.08,13.2,13.2,0,0,0-.67,1.36s0,.09,0,.13a12.71,12.71,0,0,0-.42,1.23c0,.13-.07.27-.1.41-.09.35-.16.7-.22,1.06l-.06.43a11.3,11.3,0,0,0,0,3l.06.43c.06.36.13.71.22,1.06,0,.14.06.28.1.41a12.71,12.71,0,0,0,.42,1.23s0,.08,0,.13a13.2,13.2,0,0,0,.67,1.36.22.22,0,0,0,0,.08,11.74,11.74,0,0,0,.76,1.17l.11.15a12.42,12.42,0,0,0,3.35,3.07h0l100,62.5h0a12.49,12.49,0,1,0,13.24-21.18Z" transform="translate(0 -127)"/><path class="cls-1" d="M380.88,278.91h0l83-51.9-83-51.9h0a12.49,12.49,0,1,1,13.24-21.18h0l100,62.5h0a12.42,12.42,0,0,1,3.35,3.07l.11.15a11.74,11.74,0,0,1,.76,1.17.22.22,0,0,1,.05.08,13.2,13.2,0,0,1,.67,1.36s0,.09,0,.13a12.71,12.71,0,0,1,.42,1.23c0,.13.07.27.1.41.09.35.16.7.22,1.06l.06.43a11.3,11.3,0,0,1,0,3l-.06.43c-.06.36-.13.71-.22,1.06,0,.14-.06.28-.1.41a12.71,12.71,0,0,1-.42,1.23s0,.08,0,.13a13.2,13.2,0,0,1-.67,1.36.22.22,0,0,1-.05.08,11.74,11.74,0,0,1-.76,1.17l-.11.15a12.42,12.42,0,0,1-3.35,3.07h0l-100,62.5h0a12.49,12.49,0,1,1-13.24-21.18Z" transform="translate(0 -127)"/><path class="cls-1" d="M224.52,142.93h0a12.49,12.49,0,1,0-24-6.86h0L150.56,310.78h0l-.08.29h0a12.49,12.49,0,1,0,24,6.86h0l49.92-174.71h0Z" transform="translate(0 -127)"/><path class="cls-1" d="M300,177a45.66,45.66,0,0,0-25.82,8.08A12.49,12.49,0,0,0,250,189.5v175a12.5,12.5,0,0,0,25,0V282a45.59,45.59,0,0,0,25,7.54c27.61,0,50-25.18,50-56.25S327.61,177,300,177Zm-5.75,87.5A31.16,31.16,0,0,1,275,257.86V208.64a31.25,31.25,0,1,1,19.25,55.86Z" transform="translate(0 -127)"/></svg>